<svg xmlns="http://www.w3.org/2000/svg" xmlns:xlink="http://www.w3.org/1999/xlink" width="500" zoomAndPan="magnify" viewBox="0 0 375 374.999991" height="500" preserveAspectRatio="xMidYMid meet" version="1.0"><defs><clipPath id="9cd1a45035"><path d="M 11.34375 13.527344 L 364.464844 13.527344 L 364.464844 366.648438 L 11.34375 366.648438 Z M 11.34375 13.527344 " clip-rule="nonzero"/></clipPath><clipPath id="00b6124cdb"><path d="M 187.90625 13.527344 C 90.394531 13.527344 11.34375 92.574219 11.34375 190.085938 C 11.34375 287.597656 90.394531 366.648438 187.90625 366.648438 C 285.414062 366.648438 364.464844 287.597656 364.464844 190.085938 C 364.464844 92.574219 285.414062 13.527344 187.90625 13.527344 " clip-rule="nonzero"/></clipPath><clipPath id="95b7c3b226"><path d="M 144.007812 296.980469 L 231.800781 296.980469 L 231.800781 375 L 144.007812 375 Z M 144.007812 296.980469 " clip-rule="nonzero"/></clipPath><clipPath id="131504ff26"><path d="M 248.789062 120.53125 L 301 120.53125 L 301 211.921875 L 248.789062 211.921875 Z M 248.789062 120.53125 " clip-rule="nonzero"/></clipPath><clipPath id="3c63bcb6a9"><path d="M 0 127 L 223 127 L 223 318 L 0 318 Z M 0 127 " clip-rule="nonzero"/></clipPath><clipPath id="4cd4862305"><path d="M 185.117188 127.652344 L 225.707031 186.421875 L 22.691406 326.644531 L -17.898438 267.875 Z M 185.117188 127.652344 " clip-rule="nonzero"/></clipPath><clipPath id="c653c3e5e6"><path d="M 185.117188 127.652344 L 222.824219 182.246094 L 23.125 320.179688 L -14.582031 265.585938 Z M 185.117188 127.652344 " clip-rule="nonzero"/></clipPath><clipPath id="805cb299ef"><path d="M 150 128 L 375 128 L 375 320 L 150 320 Z M 150 128 " clip-rule="nonzero"/></clipPath><clipPath id="fb847aceca"><path d="M 150.105469 182.609375 L 190.113281 123.445312 L 394.5 261.65625 L 354.492188 320.820312 Z M 150.105469 182.609375 " clip-rule="nonzero"/></clipPath><clipPath id="a2bed0b1f7"><path d="M 150.105469 182.609375 L 187.269531 127.648438 L 390.386719 265 L 353.21875 319.960938 Z M 150.105469 182.609375 " clip-rule="nonzero"/></clipPath></defs><rect x="-37.5" width="450" fill="#ffffff" y="-37.499999" height="449.999989" fill-opacity="1"/><rect x="-37.5" width="450" fill="#ffffff" y="-37.499999" height="449.999989" fill-opacity="1"/><rect x="-37.5" width="450" fill="#ffffff" y="-37.499999" height="449.999989" fill-opacity="1"/><g clip-path="url(#9cd1a45035)"><g clip-path="url(#00b6124cdb)"><path fill="#ff5a5f" d="M 11.34375 13.527344 L 364.464844 13.527344 L 364.464844 366.648438 L 11.34375 366.648438 Z M 11.34375 13.527344 " fill-opacity="1" fill-rule="nonzero"/></g></g><g clip-path="url(#95b7c3b226)"><path fill="#ffffff" d="M 144.007812 296.980469 L 234.910156 296.980469 L 234.910156 387.882812 L 144.007812 387.882812 Z M 144.007812 296.980469 " fill-opacity="1" fill-rule="nonzero"/></g><g clip-path="url(#131504ff26)"><path fill="#ffffff" d="M 248.789062 120.53125 L 300.730469 120.53125 L 300.730469 211.433594 L 248.789062 211.433594 Z M 248.789062 120.53125 " fill-opacity="1" fill-rule="nonzero"/></g><g clip-path="url(#3c63bcb6a9)"><g clip-path="url(#4cd4862305)"><g clip-path="url(#c653c3e5e6)"><path fill="#ffffff" d="M 185.117188 127.652344 L 222.019531 181.078125 L 24.34375 317.609375 L -12.554688 264.183594 Z M 185.117188 127.652344 " fill-opacity="1" fill-rule="nonzero"/></g></g></g><g clip-path="url(#805cb299ef)"><g clip-path="url(#fb847aceca)"><g clip-path="url(#a2bed0b1f7)"><path fill="#ffffff" d="M 150.105469 182.609375 L 186.476562 128.824219 L 390.863281 267.035156 L 354.492188 320.820312 Z M 150.105469 182.609375 " fill-opacity="1" fill-rule="nonzero"/></g></g></g></svg>